# xmcd
#
# Track frame offsets:
#	150
#	19464
#	38032
#	59539
#	75728
#	92799
#	109543
#	123691
#	137741
#	158901
#	190008
#
# Disc length: 2750 seconds
#
# Revision: 1
# Processed by: cddbd v1.5.2PL0 Copyright (c) Steve Scherf et al.
# Submitted via: audiograbber 1.83.01
#
DISCID=920abc0b
DTITLE=The Killers - Day and Age
DYEAR=2008
DGENRE=Pop
TTITLE0=Losing touch
TTITLE1=Human
TTITLE2=Spaceman
TTITLE3=Joy ride
TTITLE4=A dustland fairytale
TTITLE5=This is your life
TTITLE6=I can't stay
TTITLE7=Neon tiger
TTITLE8=The world we live in
TTITLE9=Goodnight, travel well
TTITLE10=A crippling blow (Bonus track)
EXTD=
EXTT0=
EXTT1=
EXTT2=
EXTT3=
EXTT4=
EXTT5=
EXTT6=
EXTT7=
EXTT8=
EXTT9=
EXTT10=
PLAYORDER=
